<?xml version="1.0" encoding="utf-8"?>
<!-- Generator: Adobe Illustrator 23.0.0, SVG Export Plug-In . SVG Version: 6.00 Build 0)  -->
<svg version="1.1" id="圖層_1" xmlns="http://www.w3.org/2000/svg" xmlns:xlink="http://www.w3.org/1999/xlink" x="0px" y="0px"
	 viewBox="0 0 60 60" style="enable-background:new 0 0 60 60;" xml:space="preserve">
<style type="text/css">
	.st0{fill:#ADADAE;}
</style>
<g id="Group_34" transform="translate(-461.943 -896.273)">
	<g id="Group_33">
		<path id="Path_18" class="st0" d="M493.6,924.6v1.5h-7.5v-1.1c0.9-1.6,2.1-2.9,3.6-3.9c1.6-1.1,2.3-2.1,2.2-2.9
			c0-1.1-0.6-1.6-1.9-1.6c-1,0-1.8,0.8-2,1.8l-1.7-0.7c0.5-1.7,2.1-2.8,3.9-2.7c2.2,0.1,3.4,1.2,3.5,3.1c0.2,1.4-0.7,2.8-2.7,4
			c-1,0.7-1.9,1.5-2.7,2.5L493.6,924.6z"/>
		<path id="Path_19" class="st0" d="M502.8,922v1.6h-1.5v2.5h-1.7v-2.6h-5v-1.2l5.3-7.5h1.3v7.1L502.8,922L502.8,922z M499.6,922
			v-4.1l-2.9,4.1H499.6z"/>
		<path id="Path_20" class="st0" d="M511.4,921v5.2h-1.8v-5c0-1.2-0.5-1.8-1.5-1.8c-1,0-1.9,0.8-2,1.8v0v5h-1.8v-11h1.8v3.8
			c0.5-0.8,1.3-1.2,2.2-1.1C510.5,917.8,511.5,918.9,511.4,921z"/>
	</g>
	<path id="Path_21" class="st0" d="M499.4,954c-4.5,0-12.6-2-23-13.6l0,0l-1.4-1.6l0,0c-15.3-18-9.6-27.9-9.3-28.3l0.1-0.2l0.5,0.5
		l-0.5-0.6c0.4-0.4,0.9-0.6,1.4-0.6c2.4-0.3,7.1-0.2,7.3-0.2h0c1.1-0.1,2.2,0.6,2.6,1.7l3.1,8.6c0.2,0.5,0.1,1-0.1,1.4
		c-0.4,0.6-1,1-1.7,1.1c-1.4,0.3-2.3,1.7-2,3.2c0,0,0,0,0,0.1c0.6,2.1,1.5,4,2.8,5.8c1.3,1.9,2.8,3.6,4.4,5.2c2.5,2.2,4.6,3.7,6,4.1
		c1.3,0.5,2.9-0.1,3.4-1.4c0,0,0,0,0-0.1c0.2-0.7,0.7-1.2,1.3-1.5c0.5-0.2,1-0.2,1.4,0.1l8.2,4.3c1,0.5,1.6,1.7,1.4,2.8
		c0,0.2-0.6,4.9-1.2,7.2c-0.1,0.5-0.3,1-0.7,1.3l-0.2,0.1C502,953.8,500.7,954,499.4,954z"/>
	<path id="Path_22" class="st0" d="M496.2,898.6c-6.1,0-12,2.4-16.3,6.7l1.1,1.3c8.4-8.4,22.1-8.3,30.5,0.1
		c8.4,8.4,8.3,22.1-0.1,30.5c-0.8,0.8-1.6,1.5-2.4,2.1l1.1,1.3c10.3-7.7,12.4-22.2,4.8-32.5C510.5,902.1,503.6,898.6,496.2,898.6
		L496.2,898.6z"/>
</g>
</svg>
