<?xml version="1.0" encoding="utf-8"?>
<!-- Generator: Adobe Illustrator 24.1.0, SVG Export Plug-In . SVG Version: 6.00 Build 0)  -->
<svg version="1.1" id="圖層_1" xmlns="http://www.w3.org/2000/svg" xmlns:xlink="http://www.w3.org/1999/xlink" x="0px" y="0px"
	 viewBox="0 0 54 52" style="enable-background:new 0 0 54 52;" xml:space="preserve">
<style type="text/css">
	.st0{fill:none;stroke:#FFFFFF;stroke-width:1.5;stroke-linecap:round;stroke-miterlimit:10;}
	.st1{enable-background:new    ;}
	.st2{fill:#FFFFFF;}
</style>
<g>
	<g id="Group_451" transform="translate(12.813 0.75)">
		<path id="Path_234" class="st0" d="M5.5,13.8c0.1-4.9,4.1-8.8,9-8.7l0,0c4.9-0.1,8.9,3.9,9,8.7"/>
		<path id="Path_235" class="st0" d="M23.2,21.7c-1.1,3.8-4.7,6.5-8.7,6.5"/>
		<path id="Rectangle_285" class="st0" d="M23.5,13.8L23.5,13.8c1.4,0,2.6,1.1,2.6,2.6v2.4c0,1.4-1.1,2.6-2.6,2.6h0
			c-1.4,0-2.6-1.1-2.6-2.6v-2.4C20.9,15,22.1,13.8,23.5,13.8z"/>
		<path id="Rectangle_286" class="st0" d="M5.5,13.8L5.5,13.8c1.4,0,2.6,1.1,2.6,2.6v2.4c0,1.4-1.1,2.6-2.6,2.6h0
			c-1.4,0-2.6-1.1-2.6-2.6v-2.4C2.9,15,4.1,13.8,5.5,13.8z"/>
	</g>
	<g class="st1">
		<path class="st2" d="M14.2,37.1v0.9H7.6c-0.4,0.9-0.9,1.7-1.5,2.4v5.7H5.3v-4.7c-0.4,0.5-0.9,0.9-1.4,1.2
			c-0.1-0.2-0.3-0.6-0.5-0.8c1.4-1,2.4-2.4,3.2-3.9H3.7v-0.9H7c0.3-0.6,0.5-1.2,0.6-1.9l0.9,0.2C8.4,36,8.2,36.5,8,37.1H14.2z
			 M11,45h3.2v0.8H7V45h3.2v-3.4H7.4v-0.8h2.7v-2.3H11v2.3h2.7v0.8H11V45z"/>
		<path class="st2" d="M19.6,41.4c0,0.2,0,0.6,0,0.7c-3,0.6-3.4,0.7-3.6,0.9c0-0.2-0.2-0.6-0.3-0.8c0.3,0,0.5-0.3,0.9-0.8
			c0.2-0.2,0.7-0.8,1.2-1.6c-1.4,0.2-1.7,0.3-1.9,0.4c0-0.2-0.2-0.6-0.3-0.9c0.2,0,0.4-0.3,0.7-0.7c0.3-0.4,1.1-1.9,1.6-3.3l0.8,0.4
			c-0.5,1.2-1.2,2.5-1.9,3.5l1.5-0.1c0.3-0.4,0.5-0.9,0.8-1.3l0.7,0.5c-0.8,1.3-1.7,2.6-2.6,3.7L19.6,41.4z M19.7,44.2l-3.9,1.2
			l-0.2-0.9c1-0.2,2.5-0.7,4-1.1L19.7,44.2z M26.3,41.4c-0.6,0.9-1.4,1.8-2.4,2.5c0.4,0.9,0.8,1.4,1.3,1.4c0.3,0,0.5-0.3,0.5-1.3
			c0.2,0.2,0.5,0.4,0.7,0.5c-0.2,1.3-0.4,1.7-1.2,1.7c-0.9,0-1.5-0.6-2-1.7c-0.9,0.6-2,1.2-3.1,1.5c-0.1-0.2-0.3-0.5-0.6-0.7
			c1.2-0.4,2.4-0.9,3.4-1.6c-0.3-0.8-0.4-1.6-0.6-2.6L20,41.4l-0.1-0.8l2.3-0.4c-0.1-0.5-0.1-1.1-0.2-1.6l-1.8,0.3l-0.2-0.8l1.9-0.3
			c0-0.8-0.1-1.7-0.1-2.6h0.9c0,0.9,0,1.7,0,2.5l2.9-0.4l0.1,0.8l-3,0.5c0,0.6,0.1,1.1,0.2,1.6l3-0.6l0.2,0.8l-3,0.6
			c0.1,0.9,0.3,1.6,0.5,2.3c0.8-0.6,1.4-1.3,1.9-2.1L26.3,41.4z M25.1,37c-0.4-0.3-1.1-0.8-1.7-1.1l0.5-0.5c0.6,0.3,1.4,0.7,1.7,1
			L25.1,37z"/>
		<path class="st2" d="M36.2,38.5c-0.6,0.9-1.4,1.7-2.4,2.3c1.3,0.6,2.9,1.1,4.6,1.3c-0.2,0.2-0.4,0.6-0.6,0.8
			c-0.6-0.1-1.1-0.2-1.7-0.3v3.5h-0.9v-0.4h-4.7v0.4h-0.9v-3.5c-0.6,0.2-1.3,0.3-1.9,0.5c-0.1-0.2-0.3-0.6-0.4-0.8
			c1.6-0.3,3.3-0.8,4.7-1.5c-0.6-0.4-1.1-0.9-1.6-1.4c-0.5,0.4-1.2,0.8-1.9,1.2c-0.1-0.2-0.4-0.5-0.6-0.6c1.6-0.7,2.8-1.8,3.4-2.7
			l1,0.2c-0.2,0.2-0.4,0.5-0.6,0.7h3.6l0.2,0L36.2,38.5z M28.8,38.5h-0.9v-2.2h4.8c-0.2-0.3-0.4-0.7-0.5-1l0.9-0.2
			c0.2,0.3,0.5,0.8,0.7,1.2H38v2.2h-0.9v-1.4h-8.3V38.5z M35.8,42.5c-1-0.3-2-0.7-2.8-1.1c-0.8,0.5-1.7,0.8-2.7,1.1H35.8z M35.3,45
			v-1.7h-4.7V45H35.3z M31.2,38.9c0.5,0.5,1.1,1,1.8,1.5c0.7-0.5,1.4-0.9,1.9-1.5L31.2,38.9L31.2,38.9z"/>
		<path class="st2" d="M43.7,45.1c0,0.5-0.1,0.7-0.4,0.9c-0.3,0.2-0.8,0.2-1.6,0.2c0-0.2-0.1-0.6-0.3-0.9c0.6,0,1.1,0,1.2,0
			c0.2,0,0.2-0.1,0.2-0.2v-3H41c-0.1,1.4-0.4,2.9-0.9,4c-0.2-0.1-0.5-0.3-0.7-0.4c0.8-1.7,0.9-4.1,0.9-5.8v-4.3h3.5V45.1z
			 M42.9,41.3v-2h-1.8v0.7c0,0.4,0,0.9,0,1.4H42.9z M41.1,36.5v2h1.8v-2H41.1z M50.2,39.9c-0.3,1.6-0.9,3-1.6,4
			c0.6,0.7,1.2,1.2,2,1.6c-0.2,0.2-0.4,0.5-0.6,0.7c-0.7-0.4-1.4-0.9-1.9-1.6c-0.5,0.6-1.2,1.2-1.8,1.5c-0.1-0.2-0.3-0.5-0.5-0.7
			c0.7-0.4,1.3-0.9,1.8-1.5c-0.7-1-1.2-2.1-1.6-3.4h-0.3v5.6h-0.8V35.7h5.1V38c0,0.5-0.1,0.7-0.5,0.8c-0.4,0.1-1,0.1-1.9,0.1
			c0-0.2-0.2-0.5-0.3-0.8c0.7,0,1.4,0,1.5,0c0.2,0,0.2,0,0.2-0.2v-1.5h-3.4v3.2h3.9l0.2,0L50.2,39.9z M46.7,40.5
			c0.3,1,0.8,1.9,1.3,2.7c0.5-0.8,0.9-1.7,1.2-2.7H46.7z"/>
	</g>
</g>
</svg>
