<?xml version="1.0" encoding="utf-8"?>
<!-- Generator: Adobe Illustrator 23.0.0, SVG Export Plug-In . SVG Version: 6.00 Build 0)  -->
<svg version="1.1" id="图层_1" xmlns="http://www.w3.org/2000/svg" xmlns:xlink="http://www.w3.org/1999/xlink" x="0px" y="0px"
	 viewBox="0 0 192.2 192.2" style="enable-background:new 0 0 192.2 192.2;" xml:space="preserve">
<style type="text/css">
	.st0{fill:#FFFFFF;}
</style>
<g>
	<path class="st0" d="M141.4,8.2H50.7c-14.5,0-26.2,11.7-26.2,26.2v123.4c0,14.5,11.7,26.2,26.2,26.2h90.7
		c14.5,0,26.2-11.7,26.2-26.2V34.4C167.7,19.9,155.9,8.2,141.4,8.2z M99.5,153.7v3.1c0,2.3-1.2,3.5-3.5,3.5c-2.3,0-3.5-1.2-3.5-3.5
		v-3.1c-7.2-0.6-13.4-3-18.9-7c-4-3-6.1-5.6-6.1-7.8c0-1.7,0.6-3.1,1.7-4.3c1.1-1.2,2.5-1.8,4.2-1.8c1,0,3.6,1.4,7.7,4.1
		c4.5,2.9,8.3,4.8,11.3,5.5v-14.8c-0.9-0.3-1.8-0.6-2.9-1c-6-1.9-10.4-3.7-13.1-5.5c-4.8-3.1-7.2-6.8-7.2-11.3
		c0-5.7,2.6-9.9,7.7-12.7c3.9-2.1,9.1-3.3,15.4-3.5v-2.9c0-2.3,1.2-3.5,3.5-3.5c2.3,0,3.5,1.2,3.5,3.5v3.2c6.8,0.6,12,2.2,15.8,4.8
		c2,1.3,3,3.1,3,5.3c0,3.6-2.1,5.4-6.4,5.4c-0.6,0-3.1-0.7-7.5-2.3c-1.8-0.6-3.5-1.1-4.8-1.5v12c7.4,2.6,12.3,4.7,14.9,6.3
		c5.3,3.3,7.9,7.4,7.9,12.5C122.2,147.1,114.6,152.9,99.5,153.7z M148.9,31.2c0,23.5-24.3,42.6-54,42.6c-29.8,0-54-19.1-54-42.6
		c-0.1-2.7,2-4.9,4.7-4.9c2.7-0.1,4.9,2,4.9,4.7c0,0.1,0,0.2,0,0.3c0,18.2,19.9,32.9,44.4,32.9s44.4-14.8,44.4-32.9
		c0-2.7,2.1-4.8,4.8-4.8C146.8,26.4,148.9,28.6,148.9,31.2C148.9,31.2,148.9,31.2,148.9,31.2z"/>
	<path class="st0" d="M99.5,129.9v12.7c6.6-0.6,10-2.7,10-6.3C109.4,134.5,106.1,132.4,99.5,129.9z"/>
	<path class="st0" d="M82.6,109c0,1.7,3.3,3.8,10,6.1v-10.4C85.9,104.8,82.6,106.3,82.6,109z"/>
</g>
</svg>
