<?xml version="1.0" encoding="utf-8"?>
<!-- Generator: Adobe Illustrator 23.0.0, SVG Export Plug-In . SVG Version: 6.00 Build 0)  -->
<svg version="1.1" id="圖層_1" xmlns="http://www.w3.org/2000/svg" xmlns:xlink="http://www.w3.org/1999/xlink" x="0px" y="0px"
	 viewBox="0 0 60 60" style="enable-background:new 0 0 60 60;" xml:space="preserve">
<style type="text/css">
	.st0{fill:none;stroke:#ADADAE;stroke-width:3;stroke-miterlimit:10;}
</style>
<g>
	<g id="Group_451" transform="translate(12.813 0.75)">
		<path id="Path_234" class="st0" d="M-1.5,23.3C-1.3,13.1,7,5,17.2,5.2l0,0C27.4,5,35.7,13.3,35.9,23.3"/>
		<path id="Path_235" class="st0" d="M35.3,39.8c-2.3,7.9-9.8,13.5-18.1,13.5"/>
		<path id="Rectangle_285" class="st0" d="M35.9,23.3L35.9,23.3c2.9,0,5.4,2.3,5.4,5.4v5c0,2.9-2.3,5.4-5.4,5.4l0,0
			c-2.9,0-5.4-2.3-5.4-5.4v-5C30.5,25.8,33,23.3,35.9,23.3z"/>
		<path id="Rectangle_286" class="st0" d="M-1.5,23.3L-1.5,23.3c2.9,0,5.4,2.3,5.4,5.4v5c0,2.9-2.3,5.4-5.4,5.4l0,0
			c-2.9,0-5.4-2.3-5.4-5.4v-5C-6.9,25.8-4.4,23.3-1.5,23.3z"/>
	</g>
</g>
</svg>
