<?xml version="1.0" encoding="utf-8"?>
<!-- Generator: Adobe Illustrator 23.0.0, SVG Export Plug-In . SVG Version: 6.00 Build 0)  -->
<svg version="1.1" id="圖層_1" xmlns="http://www.w3.org/2000/svg" xmlns:xlink="http://www.w3.org/1999/xlink" x="0px" y="0px"
	 viewBox="0 0 60 60" style="enable-background:new 0 0 60 60;" xml:space="preserve">
<style type="text/css">
	.st0{fill:#ADADAE;}
</style>
<g id="Group_38" transform="translate(-461.943 -896.273)">
	<path id="Path_25" class="st0" d="M491.9,934l-6.7-5.9l-19.2,16.4c0.7,0.7,1.7,1,2.7,1h46.4c1,0,1.9-0.4,2.7-1l-19.2-16.4
		L491.9,934z"/>
	<path id="Path_26" class="st0" d="M517.8,908c-0.7-0.7-1.7-1-2.7-1h-46.4c-1,0-2,0.4-2.7,1.1l25.9,22.2L517.8,908z"/>
	<path id="Path_27" class="st0" d="M464.8,910.3v32.2l18.7-15.9L464.8,910.3z"/>
	<path id="Path_28" class="st0" d="M500.3,926.6l18.7,15.9v-32.2L500.3,926.6z"/>
</g>
</svg>
