<?xml version="1.0" encoding="utf-8"?>
<!-- Generator: Adobe Illustrator 24.3.0, SVG Export Plug-In . SVG Version: 6.00 Build 0)  -->
<svg version="1.1" id="圖層_1" xmlns="http://www.w3.org/2000/svg" xmlns:xlink="http://www.w3.org/1999/xlink" x="0px" y="0px"
	 viewBox="0 0 60 60" style="enable-background:new 0 0 60 60;" xml:space="preserve">
<style type="text/css">
	.st0{fill:#ADADAE;}
</style>
<g>
	<g>
		<path class="st0" d="M15.6,52.9c-0.6,0-1.2-0.2-1.5-0.8c-0.6-1-0.4-1.9-0.2-2.5l1.7-6.9C9,39,5.2,33.1,5.2,26.7
			c0-11,11.2-19.6,24.8-19.6S54.8,16,54.8,26.7S43.7,46.4,30,46.4c-1.2,0-2.3,0-3.5-0.2l-9.4,6.2C16.7,52.5,16.1,52.9,15.6,52.9z
			 M30,10.2c-11.9,0-21.6,7.3-21.6,16.6c0,5.6,3.7,10.6,9.6,13.7l1.2,0.6l-1.7,7.3l8.3-5.4h0.6c1.2,0.2,2.3,0.2,3.7,0.2
			c11.9,0,21.6-7.3,21.6-16.6S41.9,10.2,30,10.2z"/>
		<path class="st0" d="M21.7,22.5c0-0.6-0.4-1-1-1h-7.1c-0.6,0-1,0.4-1,1s0.4,1,1,1h2.5v8.3c0,0.6,0.4,1,1,1c0.6,0,1-0.4,1-1v-8.3
			h2.5C21.3,23.5,21.7,23.1,21.7,22.5z M29.2,29.2L29.2,29.2c0-0.4-0.2-0.6-0.2-0.8l-2.3-6.2c-0.2-0.6-0.8-1-1.3-1
			c-0.6,0-1.2,0.4-1.5,1l-3.7,9c-0.2,0.6,0,1.2,0.6,1.3s1.2,0,1.3-0.6l0.8-1.7h4.6l0.6,1.7c0.2,0.4,0.6,0.8,1,0.8c0.2,0,0.2,0,0.4,0
			c0.6-0.2,0.8-0.8,0.6-1.3L29.2,29.2z M23.6,28.3l1.5-3.8l1.3,3.8H23.6z M36.5,30.6h-3.3v-8.1c0-0.6-0.4-1-1-1c-0.6,0-1,0.4-1,1
			v9.2c0,0.6,0.4,1,1,1h4.2c0.6,0,1-0.4,1-1C37.5,31.2,37.1,30.6,36.5,30.6z M43.1,26.3l3.3-3.1c0.4-0.4,0.4-1.2,0-1.5
			c-0.4-0.4-1.2-0.4-1.5,0l-4.2,4v-3.5c0-0.6-0.4-1-1-1c-0.6,0-1,0.4-1,1v5.6c0,0.2,0,0.4,0,0.6v3.3c0,0.6,0.4,1,1,1
			c0.6,0,1-0.4,1-1v-3.1l1-1l3.1,4.4c0.2,0.4,0.6,0.4,0.8,0.4c0.2,0,0.4,0,0.6-0.2c0.4-0.4,0.6-1,0.2-1.5L43.1,26.3z"/>
	</g>
</g>
</svg>
