<svg xmlns="http://www.w3.org/2000/svg" width="239.665" height="54.929" viewBox="0 0 239.665 54.929"><defs><style>.a{fill:#ee3a37;}.b{fill:#23346b;}</style></defs><g transform="translate(0 0)"><g transform="translate(0 0)"><path class="a" d="M45.7,41.982c0,4.089,0,8.809-6.667,8.809H33.959a20.224,20.224,0,0,0,1.166-3.567V32.11H15.766V50.463H4.867V10.734c0-3.567,4.867-5.877,8.041-5.877h4.232A7.775,7.775,0,0,0,15.87,8.42V23.309H35.548V5.479H45.7ZM30.47.759V18.7H20.633V8.334c0-2.306,6.046-7.864,6.046-7.864H13.015C7.617.448,0,5.168,0,11.46V55.2H19.994V37.262H30.155v8.494s-.32,5.35-6.352,9.44H38.4c4.128,0,11.741-1.261,11.741-10.364V.759Z" transform="translate(0 -0.267)"/><path class="b" d="M147.79,23.276h2.85V.065h-2.85ZM167.62,0V9.461H152.2v2.958h15.408V23.241h2.98V0Z" transform="translate(-83.97 0)"/><path class="b" d="M231.761,22.887c.047.086.112.207.2.363h-3.351l-1.641-3.286-1.606-3.321H213.443c-.514,1.084-1.049,2.194-1.606,3.321s-1.071,2.194-1.611,3.321H207l.2-.4q1.067-2.194,2.211-4.517,1.067-2.224,2.207-4.517h12.393q-.972-2.021-1.978-4.051l-1.973-4.016c-.134-.268-.259-.5-.367-.7s-.216-.432-.3-.63c-.022.048-.056.125-.1.233-.091.177-.181.367-.268.566a2.2,2.2,0,0,1-.238.462q-.838,1.762-1.641,3.424l-1.542,3.152h-3.213l2.98-6.076q1.485-3,3.062-6.218h2.043q3.148,6.408,5.614,11.387l5.67,11.5" transform="translate(-117.611 0)"/><path class="b" d="M289.681,0h2.945V23.276h-1.688l-17.7-17.334V1.926L289.707,18.2c-.022-.289-.03-.579-.03-.864ZM268.85,0h1.706l1.105,1.028V23.241H268.85Z" transform="translate(-152.753 0)"/><path class="b" d="M350.064,2.457H342.93V0h7.134ZM329.5,0h11.875V23.276h-3.023V2.457H329.5Z" transform="translate(-187.212 0)"/><path class="b" d="M388.938,14.311h7.838V11.918h-7.838ZM384.33,0V23.276h13.819V20.818h-10.8V2.457h10.45V0Z" transform="translate(-218.365 0)"/><path class="b" d="M425.721,8.036a11.317,11.317,0,0,0-.535,1.693,10.2,10.2,0,0,0-.168,1.891,7.915,7.915,0,0,0,.8,3.519,8.027,8.027,0,0,0,1.006,1.563,9.326,9.326,0,0,0,1.408,1.425,10.368,10.368,0,0,0,1.676,1.2,14.8,14.8,0,0,0,1.84.864,12.92,12.92,0,0,0,2.043.5,14.25,14.25,0,0,0,2.211.168c.8,0,1.585-.035,2.345-.1a20.965,20.965,0,0,0,2.159-.3,2.054,2.054,0,0,1,.3-.065v2.457a.95.95,0,0,0-.2.035.557.557,0,0,0-.168.03H440.3c-.38.047-.738.1-1.071.168-.4.043-.773.078-1.105.1s-.717.078-1.071.1h-1.041a18.262,18.262,0,0,1-2.777-.2,14.824,14.824,0,0,1-2.578-.622,14.584,14.584,0,0,1-2.362-1.049,15.573,15.573,0,0,1-2.159-1.46,11.228,11.228,0,0,1-1.775-1.758,11.275,11.275,0,0,1-1.339-2A10.9,10.9,0,0,1,422.257,14a10.207,10.207,0,0,1-.268-2.392,11.459,11.459,0,0,1,.233-2.323,12.093,12.093,0,0,1,.669-2.159,8.874,8.874,0,0,1,1.14-1.973A14.679,14.679,0,0,1,425.6,3.394,11.659,11.659,0,0,1,427.547,1.9,11.088,11.088,0,0,1,429.741.864,10.566,10.566,0,0,1,432.086.25a17.541,17.541,0,0,1,2.543-.186V0a26.272,26.272,0,0,1,3.049.168q1.438.13,2.915.363a.453.453,0,0,0,.2.035V3.023a2.087,2.087,0,0,1-.3-.035c-.963-.177-1.922-.311-2.885-.4a22.243,22.243,0,0,0-2.712-.168,11.366,11.366,0,0,0-3.986.665,9.5,9.5,0,0,0-4.353,3.39,9.966,9.966,0,0,0-.838,1.563" transform="translate(-239.762 0)"/><path class="b" d="M388.735,81.028a11.842,11.842,0,0,0-.536,1.693,10.284,10.284,0,0,0-.177,1.9,8.367,8.367,0,0,0,.2,1.827,8.1,8.1,0,0,0,.6,1.693,7.775,7.775,0,0,0,1,1.559,9.556,9.556,0,0,0,1.408,1.429,10.638,10.638,0,0,0,1.676,1.2,15.738,15.738,0,0,0,1.84.864,12.867,12.867,0,0,0,2.047.5,14.152,14.152,0,0,0,2.207.164c.8,0,1.585-.035,2.345-.1a21.051,21.051,0,0,0,2.159-.3,2.056,2.056,0,0,1,.3-.065v2.457a.865.865,0,0,0-.2.03.583.583,0,0,0-.168.035h-.134c-.38.043-.738.1-1.071.164-.4.048-.769.078-1.105.1s-.717.078-1.071.1h-1.041a18.261,18.261,0,0,1-2.777-.2,14.371,14.371,0,0,1-4.927-1.658,15.549,15.549,0,0,1-2.159-1.46,10.917,10.917,0,0,1-1.779-1.762,9.288,9.288,0,0,1-2.107-4.184A10.145,10.145,0,0,1,385,84.616a11.506,11.506,0,0,1,.233-2.328,11.953,11.953,0,0,1,.669-2.159,8.9,8.9,0,0,1,1.14-1.978,14.628,14.628,0,0,1,1.572-1.758,11.418,11.418,0,0,1,1.943-1.494,11.09,11.09,0,0,1,2.215-1.036,10.877,10.877,0,0,1,2.345-.618,17.546,17.546,0,0,1,2.543-.181V73a27.241,27.241,0,0,1,3.049.164q1.438.134,2.915.367a.479.479,0,0,0,.2.03v2.461a2,2,0,0,1-.3-.03q-1.447-.263-2.88-.4a23.2,23.2,0,0,0-2.716-.164,11.267,11.267,0,0,0-3.986.665,9.5,9.5,0,0,0-4.37,3.386,9.932,9.932,0,0,0-.838,1.559" transform="translate(-218.745 -41.476)"/><path class="a" d="M254.455,89.46V81.847s.285-4.806,5.648-8.477H252.52" transform="translate(-143.474 -41.687)"/><path class="b" d="M152.341,84.718h8.766V82.3h-8.766ZM147.79,73.4V96.5h2.967V75.844h11.469V73.4Z" transform="translate(-83.97 -41.704)"/><rect class="b" width="2.932" height="23.129" transform="translate(81.292 31.666)"/><path class="b" d="M203.59,73.33h1.68l1.088,1.019V96.424H203.59Zm20.5,0h2.9V96.454h-1.632l-17.45-17.221v-3.99l16.215,16.163c0-.285-.035-.57-.035-.864Z" transform="translate(-115.674 -41.664)"/><path class="b" d="M286.21,96.086c.043.086.112.207.2.363h-3.295L281.5,93.184l-1.58-3.3H268.181q-.76,1.611-1.58,3.3-.79,1.611-1.581,3.3h-3.2l.2-.4q1.056-2.176,2.159-4.487,1.054-2.207,2.159-4.487h12.229q-.959-2.012-1.948-4.025l-1.943-3.994c-.134-.263-.255-.492-.363-.691s-.212-.432-.3-.626c-.022.043-.052.121-.1.229-.086.177-.173.363-.263.561a2.194,2.194,0,0,1-.229.462q-.82,1.749-1.615,3.4l-1.516,3.135h-3.165l2.936-6.046q1.481-2.967,3.023-6.167h2.008q3.1,6.365,5.536,11.318,2.859,5.894,5.579,11.418" transform="translate(-148.758 -41.675)"/><path class="b" d="M322.81,73.33h1.68l1.088,1.019V96.424H322.81Zm20.5,0h2.9V96.454h-1.65L327.128,79.233v-3.99l16.215,16.163c-.022-.285-.035-.57-.035-.864Z" transform="translate(-183.411 -41.664)"/><path class="b" d="M478.046,96.271h10.973V93.728H478.046ZM476.448,73h-2.954V96.241h2.954ZM464.4,84.383Q461.908,79.4,458.713,73h-2.081q-1.593,3.217-3.122,6.21l-3.023,6.076h3.265l1.585-3.161c.54-1.105,1.1-2.246,1.663-3.42a2.2,2.2,0,0,0,.237-.462c.091-.2.181-.389.272-.566s.078-.186.1-.233c.091.2.19.41.307.63s.238.432.371.7l2,4.016q1.023,2.025,2,4.051H449.722q-1.153,2.293-2.241,4.517l-2.254,4.53-.2.4h3.295q.816-1.7,1.632-3.321c.566-1.131,1.105-2.237,1.628-3.321H463.67l1.632,3.321,1.663,3.286h3.4c-.091-.155-.16-.276-.2-.367q-2.79-5.545-5.743-11.487M438.87,96.289h3.023V73H438.87Z" transform="translate(-249.353 -41.476)"/></g></g></svg>